<svg id="Layer_1" data-name="Layer 1" xmlns="http://www.w3.org/2000/svg" viewBox="0 0 841.89 595.28"><defs><style>.cls-1,.cls-2,.cls-3{fill:#fff;}.cls-1{opacity:0.09;}.cls-2{opacity:0.3;}</style></defs><title>cloud-01</title><path class="cls-1" d="M828.57,524.28l-4.88-420.52c-13.63,1-18.38,5-18.38,5s-12-20.26-35.53-24S727.51,92,727.51,92s-17.52-13.26-40-6-26.77,18.52-26.77,18.52-13-4-21.76,2.25-10.51,11.75-10.51,11.75-8.75-10.5-25-6.75a28.16,28.16,0,0,0-20.52,17.51s-5.25-4.75-10-4-9.76,4-9.76,4-3.75-8.5-19.76-7.75-19.51,13.75-19.51,13.75-10.26-16.51-30-15.25-25.77,20-25.77,20-11-9.51-21.76-6.51A26,26,0,0,0,431.07,145s-.25-3.81-6.26-5.38-7.5,2.88-7.5,2.88,2.17-12.84-14.18-17.85-22.51,6.68-22.51,6.68-3.67-14.43-21.76-14.43-22.27,16.53-22.27,16.53-5.17-6.86-19.93-6.86S297,133.47,297,133.47s-7.69-12.07-21.45-12.07-19.57,10-19.57,10a14,14,0,0,0-4.48-3.13,8.83,8.83,0,0,0-5-.72s-2-18.51-23.26-24-34.53,15-34.53,15a24,24,0,0,0-10.75-8,21.43,21.43,0,0,0-14.76,0S156.39,97,138.63,88.25s-38.52,0-38.52,0S83.1,71,60.08,71s-36.9,11.26-36.9,11.26V522.61l407.89,1.67h397.5Z"/><path class="cls-2" d="M62.87,498,67.27,119c12.29.9,16.57,4.51,16.57,4.51s10.82-18.27,32-21.65S154,108.37,154,108.37s15.79-12,36.08-5.41,24.13,16.69,24.13,16.69,11.73-3.61,19.62,2,9.47,10.6,9.47,10.6,7.9-9.48,22.55-6.09A25.35,25.35,0,0,1,284.31,142s4.74-4.28,9-3.61a27.08,27.08,0,0,1,8.79,3.61s3.38-7.67,17.81-7,17.59,12.4,17.59,12.4,9.25-14.88,27.06-13.75,23.23,18,23.23,18,9.92-8.57,19.62-5.86a23.36,23.36,0,0,1,13.76,10.37s.22-3.44,5.63-4.85,6.77,2.59,6.77,2.59-2-11.57,12.78-16.08,20.29,6,20.29,6,3.31-13,19.62-13,20.07,14.9,20.07,14.9,4.66-6.18,18-6.18,17.74,6.18,17.74,6.18,6.93-10.88,19.33-10.88,17.65,9,17.65,9a12.62,12.62,0,0,1,4-2.82,8,8,0,0,1,4.54-.65s1.8-16.68,21-21.65,31.12,13.54,31.12,13.54a21.61,21.61,0,0,1,9.7-7.22,19.27,19.27,0,0,1,13.3,0s6.09-12.18,22.1-20.07,34.73,0,34.73,0,15.33-15.56,36.08-15.56,33.26,10.15,33.26,10.15v397L421.2,498H62.87Z"/><path class="cls-3" d="M788.88,515.18l-4.39-379.07c-12.29.9-16.58,4.51-16.58,4.51s-10.82-18.27-32-21.65-38.11,6.54-38.11,6.54-15.79-12-36.08-5.41-24.13,16.69-24.13,16.69-11.73-3.61-19.62,2-9.47,10.6-9.47,10.6-7.89-9.47-22.55-6.08a25.35,25.35,0,0,0-18.49,15.78s-4.74-4.28-9-3.61a27.07,27.07,0,0,0-8.8,3.61s-3.38-7.67-17.81-7-17.59,12.4-17.59,12.4-9.25-14.88-27.06-13.75-23.23,18-23.23,18-9.92-8.57-19.62-5.87a23.4,23.4,0,0,0-13.75,10.38s-.23-3.44-5.64-4.85-6.77,2.59-6.77,2.59,2-11.57-12.78-16.08-20.29,6-20.29,6-3.31-13-19.62-13-20.07,14.9-20.07,14.9-4.66-6.19-18-6.19-17.74,6.19-17.74,6.19S302.75,152,290.35,152s-17.65,9-17.65,9a12.62,12.62,0,0,0-4-2.82,8,8,0,0,0-4.54-.65s-1.8-16.69-21-21.65S212,149.41,212,149.41a21.56,21.56,0,0,0-9.7-7.21,19.27,19.27,0,0,0-13.3,0S183,130,166.94,122.13s-34.73,0-34.73,0-15.33-15.56-36.08-15.56-33.26,10.15-33.26,10.15v397l367.69,1.5H788.88Z"/></svg>