<?xml version="1.0" encoding="UTF-8"?>
<svg width="50px" height="50px" viewBox="0 0 50 50" version="1.1" xmlns="http://www.w3.org/2000/svg" xmlns:xlink="http://www.w3.org/1999/xlink">
    <!-- Generator: Sketch 46.2 (44496) - http://www.bohemiancoding.com/sketch -->
    <title>facebookfb</title>
    <desc>Created with Sketch.</desc>
    <defs></defs>
    <g id="Page-1" stroke="none" stroke-width="1" fill="none" fill-rule="evenodd">
        <g id="facebook" fill-rule="nonzero">
            <circle id="Oval-2" fill="#3C5A99" cx="25" cy="25" r="25"></circle>
            <path d="M15.5033767,12.0000478 C13.5685795,12.0000478 12,13.5685385 12,15.5034245 L12,34.496091 C12,36.4310657 13.5684908,37.9994677 15.5033767,37.9994677 L24.8703184,37.9994677 L24.8865533,28.7089989 L22.4726034,28.7089989 C22.1589053,28.7089989 21.9042917,28.4552724 21.9032271,28.1415743 L21.8914279,25.1466263 C21.8901859,24.83142 22.1457754,24.5749434 22.4609817,24.5749434 L24.8706732,24.5749434 L24.8706732,21.6812199 C24.8706732,18.3231592 26.9215991,16.4946432 29.917168,16.4946432 L32.3754757,16.4946432 C32.6897948,16.4946432 32.9450294,16.7496117 32.9450294,17.064197 L32.9450294,19.5893074 C32.9450294,19.9038927 32.690061,20.1588612 32.3758305,20.1588612 L30.867134,20.1597483 C29.2380506,20.1597483 28.9224007,20.9337914 28.9224007,22.0700601 L28.9224007,24.5752982 L32.5021615,24.5752982 C32.8435389,24.5752982 33.1080886,24.873205 33.067723,25.2116548 L32.7127721,28.2066027 C32.6789715,28.4933314 32.4358022,28.7091763 32.1472106,28.7091763 L28.9385469,28.7091763 L28.922312,38 L34.4959545,38 C36.4307517,38 37.9993312,36.4313318 37.9993312,34.4965346 L37.9993312,15.5034245 C37.9994199,13.5686272 36.4308405,12.0000478 34.4960432,12.0000478 L15.5033767,12.0000478 Z" id="Shape" fill="#FFFFFF"></path>
        </g>
    </g>
</svg>